<?xml version="1.0" ?><!DOCTYPE svg  PUBLIC '-//W3C//DTD SVG 1.1//EN'  'http://www.w3.org/Graphics/SVG/1.1/DTD/svg11.dtd'><svg height="167px" style="enable-background:new 0 0 167 167;" version="1.1" viewBox="0 0 167 167" width="167px" xml:space="preserve" xmlns="http://www.w3.org/2000/svg" xmlns:xlink="http://www.w3.org/1999/xlink"><style type="text/css">
<![CDATA[
	.st0{fill:#EF3E42;}
	.st1{fill:#54B948;}
	.st2{fill:#FFC425;}
	.st3{fill:#FFFFFF;}
	.st4{fill:none;}
]]>
</style><defs/><polygon class="st0" points="18.5,15.9 152.4,15.9 152.4,149.8 18.5,149.8 18.5,15.9 "/><polygon class="st3" points="96.2,71.2 76.1,42.5 105.1,42.5 133.4,82.8 105.1,123.2 76.1,123.2 96.2,94.5 37.6,94.5 37.6,71.2   96.2,71.2 "/><path d="M161.4,6.3c0.3,0,0.6,0.3,0.6,0.6v151.8c0,0.3-0.3,0.6-0.6,0.6H9.6c-0.3,0-0.6-0.3-0.6-0.6V6.9c0-0.3,0.3-0.6,0.6-0.6H161.4  L161.4,6.3z M160.8,7.5H10.2v150.6h150.6V7.5L160.8,7.5z"/><rect class="st4" height="167" id="_x3C_Slice_x3E__48_" width="167"/></svg>